<?xml version="1.0" encoding="UTF-8" standalone="no"?>
<svg
   xmlns:dc="http://purl.org/dc/elements/1.1/"
   xmlns:cc="http://creativecommons.org/ns#"
   xmlns:rdf="http://www.w3.org/1999/02/22-rdf-syntax-ns#"
   xmlns:svg="http://www.w3.org/2000/svg"
   xmlns="http://www.w3.org/2000/svg"
   xmlns:sodipodi="http://sodipodi.sourceforge.net/DTD/sodipodi-0.dtd"
   xmlns:inkscape="http://www.inkscape.org/namespaces/inkscape"
   aria-hidden="true"
   focusable="false"
   data-prefix="fas"
   data-icon="check"
   class="svg-inline--fa fa-check fa-w-16"
   role="img"
   viewBox="0 0 512 512"
   version="1.1"
   id="svg4"
   sodipodi:docname="check-solid.svg"
   inkscape:version="0.92.3 (2405546, 2018-03-11)">
  <metadata
     id="metadata10">
    <rdf:RDF>
      <cc:Work
         rdf:about="">
        <dc:format>image/svg+xml</dc:format>
        <dc:type
           rdf:resource="http://purl.org/dc/dcmitype/StillImage" />
        <dc:title></dc:title>
      </cc:Work>
    </rdf:RDF>
  </metadata>
  <defs
     id="defs8" />
  <sodipodi:namedview
     pagecolor="#ffffff"
     bordercolor="#666666"
     borderopacity="1"
     objecttolerance="10"
     gridtolerance="10"
     guidetolerance="10"
     inkscape:pageopacity="0"
     inkscape:pageshadow="2"
     inkscape:window-width="1920"
     inkscape:window-height="998"
     id="namedview6"
     showgrid="false"
     inkscape:zoom="1"
     inkscape:cx="10.224913"
     inkscape:cy="196.64543"
     inkscape:window-x="0"
     inkscape:window-y="28"
     inkscape:window-maximized="1"
     inkscape:current-layer="svg4" />
  <path
     fill="currentColor"
     d="M173.898 439.404l-166.4-166.4c-9.997-9.997-9.997-26.206 0-36.204l36.203-36.204c9.997-9.998 26.207-9.998 36.204 0L192 312.69 432.095 72.596c9.997-9.997 26.207-9.997 36.204 0l36.203 36.204c9.997 9.997 9.997 26.206 0 36.204l-294.4 294.401c-9.998 9.997-26.207 9.997-36.204-.001z"
     id="path2"
     style="fill:#44aa00" />
  <path
     style="fill:#44aa00;stroke-width:2.16949153"
     d="M 94.000896,358.50847 C 46.418146,311.07797 6.0951543,269.63492 4.3942493,266.41282 -3.2087123,252.01019 0.79034316,243.93683 29.164227,216.40678 c 20.763744,-20.14623 22.247967,-21.15254 31.198321,-21.15254 5.168584,0 11.811261,1.59699 14.761507,3.54887 2.950244,1.95189 30.496695,28.54187 61.214335,59.08886 l 55.85026,55.53998 123.21428,-123.08886 123.2143,-123.088853 h 9.89809 c 7.4775,0 11.96724,1.519474 18.35917,6.213347 12.68575,9.315679 39.47661,37.900626 42.17587,45.000236 5.96777,15.6964 10.23436,10.80349 -146.14129,167.59409 -80.15863,80.37135 -149.55046,148.9544 -154.20407,152.40678 -6.41913,4.76218 -10.84175,6.27707 -18.32555,6.27707 h -9.86446 z"
     id="path3715"
     inkscape:connector-curvature="0" />
  <path
     style="fill:#44aa00;stroke-width:2.16949153"
     d="M 95.674576,358.16201 C 47.945763,310.3713 7.1427037,267.93426 5.0011119,263.85747 -0.98412885,252.46381 1.8927458,246.54457 24.980734,222.74886 c 24.046438,-24.78354 29.501062,-28.27608 40.923774,-26.20307 6.837282,1.24084 15.391681,8.67985 55.803962,48.52784 49.68745,48.99364 67.37891,65.77895 70.53939,66.92637 1.02706,0.37287 57.21251,-54.29831 124.85654,-121.49153 l 122.98913,-122.169487 9.37465,0.341755 c 5.15606,0.187965 11.62112,1.890365 14.36679,3.783111 9.77803,6.74052 40.81501,39.277371 44.12941,46.261981 3.09662,6.52561 3.05709,7.76777 -0.48478,15.24027 -2.19825,4.63777 -29.4897,34.25266 -63.47724,68.88136 -65.59813,66.83559 -232.799,232.70346 -238.94359,237.03862 -2.13096,1.50344 -8.08873,3.28131 -13.2395,3.95084 l -9.36503,1.21728 z"
     id="path3717"
     inkscape:connector-curvature="0" />
  <path
     style="fill:#44aa00;stroke-width:2.16949153"
     d=""
     id="path3719"
     inkscape:connector-curvature="0" />
  <path
     style="fill:#44aa00;stroke-width:2.16949153"
     d=""
     id="path3721"
     inkscape:connector-curvature="0" />
  <path
     style="fill:#44aa00;stroke-width:2.16949153"
     d="M 94.793327,358.29304 C 47.773045,310.96153 7.4581226,268.68285 5.204608,264.34043 2.3783979,258.89446 1.5847294,254.54293 2.6462529,250.31349 4.40575,243.30309 42.481859,203.02019 52.005927,198.09305 c 13.543671,-7.00661 16.771389,-4.72699 79.870893,56.40992 32.25367,31.25048 59.34987,56.81906 60.21376,56.81906 0.8639,0 56.92281,-54.67118 124.57535,-121.49152 67.65255,-66.82034 124.85195,-121.793586 127.10979,-122.162769 11.44708,-1.871736 21.83218,4.090366 41.13649,23.6165 10.60864,10.730539 20.89383,22.893219 22.856,27.028169 3.32327,7.00329 3.31472,8.05092 -0.12474,15.29922 -4.68407,9.87077 -129.1988,137.83115 -227.99363,234.30274 -77.44529,75.62409 -79.50241,77.28779 -94.75492,76.63369 -3.05106,-0.13085 -33.52263,-29.30155 -90.101593,-86.25502 z"
     id="path3723"
     inkscape:connector-curvature="0" />
  <path
     style="fill:#44aa00;stroke-width:2.16949153"
     d="M 112.95503,376.94915 C 18.587506,281.89078 3.9916407,266.42225 2.2986385,259.67679 -0.14016456,249.95983 5.1658242,241.49688 27.849045,218.92441 51.11711,195.76995 57.675954,192.50476 70.284527,197.79874 c 3.771563,1.58358 32.814203,28.16053 64.539193,59.0599 l 57.6818,56.18068 L 315.5233,190.14677 C 450.63086,55.176768 441.61464,62.62445 460.40027,70.473585 c 9.10946,3.806171 41.28649,35.946785 47.42867,47.374985 4.27294,7.95026 4.27296,8.01353 0.002,15.94302 -2.35805,4.3786 -26.33759,30.98199 -53.28792,59.11865 -74.5917,77.8757 -245.05916,245.56116 -253.03622,248.90721 -3.83964,1.61056 -10.19122,2.92831 -14.11461,2.92831 -6.47693,0 -13.3276,-6.2395 -74.43733,-67.79661 z"
     id="path3725"
     inkscape:connector-curvature="0" />
  <path
     style="fill:#44aa00;stroke-width:2.16949153"
     d=""
     id="path3727"
     inkscape:connector-curvature="0" />
  <path
     style="fill:#44aa00;stroke-width:0.27118644"
     d="M 90.847243,356.05259 C 15.687319,280.84316 4.8693947,269.91807 3.9118069,268.25598 1.2957935,263.71536 0.22676775,259.81634 0.23131671,254.83226 c 0.00566,-6.202 1.88453289,-11.40243 5.87252769,-16.25426 0.8045366,-0.9788 10.1047426,-10.38303 20.6671246,-20.89829 21.3216,-21.22647 21.158891,-21.08615 26.608716,-22.94619 3.542682,-1.20913 6.041776,-1.56027 9.815951,-1.37924 4.916757,0.23585 9.43133,1.80849 13.423729,4.67612 1.632868,1.17284 62.042885,61.41202 61.586185,61.41202 -0.13387,0 -6.23674,-5.94915 -13.56193,-13.22033 -24.68701,-24.50503 -47.135488,-45.98722 -49.839498,-47.69418 -2.810219,-1.77402 -9.844524,-3.35822 -14.897527,-3.3551 -8.601012,0.005 -11.365568,1.98586 -33.834617,24.23937 -12.059016,11.94334 -16.7413005,17.18077 -20.5618326,22.99974 -3.2637348,4.97092 -4.4919712,8.43491 -4.5000655,12.69152 -0.00614,3.22982 0.6936052,5.90229 2.520715,9.62712 1.1731045,2.39154 1.7724111,3.19194 5.0738058,6.77623 16.3153483,17.71342 44.8589893,46.65983 116.1127793,117.75122 29.03084,28.96467 52.6007,52.66976 52.37748,52.67797 -0.22323,0.008 -39.03465,-38.63932 -86.247617,-85.88339 z"
     id="path3729"
     inkscape:connector-curvature="0" />
  <path
     style="fill:#44aa00;stroke-width:0.27118644"
     d=""
     id="path3731"
     inkscape:connector-curvature="0" />
  <path
     style="fill:#44aa00;stroke-width:0.27118644"
     d=""
     id="path3733"
     inkscape:connector-curvature="0" />
  <path
     style="fill:#44aa00;stroke-width:0.27118644"
     d="m 181.406,444.66409 c -0.87531,-0.12279 -6.27119,-5.41402 -52.26913,-51.25556 C 56.580973,321.09935 17.526304,281.40829 5.4573052,267.71361 c -0.6572341,-0.74576 -1.0276965,-1.11186 -0.8232499,-0.81356 2.29998,3.35587 20.2022357,22.13328 43.7550457,45.89403 6.697082,6.75621 12.122359,12.33817 12.056168,12.40436 -0.134327,0.13433 -37.938836,-37.69145 -48.99768,-49.02524 -7.0136682,-7.18805 -7.108098,-7.3001 -8.4556557,-10.0339 -1.9962532,-4.04981 -2.50121323,-6.25419 -2.5280001,-11.03586 -0.0179048,-3.19614 0.0894289,-4.37898 0.5733982,-6.31901 0.6958758,-2.78946 1.9658624,-5.65891 3.5791844,-8.08692 1.3708155,-2.06305 38.8251402,-39.60181 42.1326712,-42.22766 2.548312,-2.0231 3.783339,-2.67259 7.361703,-3.87142 2.661926,-0.89181 2.799257,-0.90861 7.457628,-0.91216 5.606221,-0.004 7.123384,0.30527 11.265575,2.29851 2.043374,0.98329 3.269831,1.80693 4.912846,3.29929 3.248285,2.95043 39.138951,38.56011 39.141461,38.83502 10e-4,0.12979 -3.67096,-3.34817 -8.16032,-7.72881 -21.826274,-21.2977 -32.498952,-31.2574 -34.684986,-32.36787 -1.229823,-0.62473 -4.673077,-1.77609 -5.248906,-1.75513 -0.170728,0.006 0.890875,0.41923 2.359121,0.91782 1.468244,0.49859 3.256244,1.31723 3.973332,1.81921 3.576572,2.50369 23.026367,21.26482 62.780859,60.55795 33.57455,33.18491 46.04897,45.20296 52.56378,50.64075 l 1.58073,1.3194 0.85995,-0.7156 c 2.99678,-2.49375 40.30753,-38.68967 61.87633,-60.02749 7.75624,-7.67317 32.28569,-32.1107 54.50991,-54.3056 l 40.40762,-40.35436 70.43555,0.0683 70.43555,0.0683 -3.02383,3.25424 c -13.1693,14.1727 -34.91542,36.36075 -82.50826,84.18501 -98.85901,99.33969 -189.2645,188.93727 -196.26605,194.51205 -4.44615,3.54015 -9.27982,5.66112 -14.05772,6.16843 -2.8838,0.3062 -11.81007,0.49953 -13.31506,0.28838 z M 2.7360765,262.54364 c -0.4335153,-1.03448 -0.970394,-2.73511 -1.1930639,-3.77918 -0.2226699,-1.04407 -0.4148032,-1.61084 -0.4269629,-1.25948 -0.044797,1.2944 1.9611143,7.36665 2.3162066,7.01156 0.050616,-0.0506 -0.2626647,-0.93842 -0.6961798,-1.9729 z M 1.017353,254.63259 c -0.0623333,-0.41222 -0.11499916,-0.13932 -0.11703512,0.60644 -0.002037,0.74577 0.0489641,1.08304 0.11333342,0.7495 0.064369,-0.33355 0.066035,-0.94372 0.0037,-1.35594 z m 1.0576268,-5.06808 c 1.781052,-5.43813 6.5831694,-12.05039 15.6685232,-21.57474 l 3.49702,-3.66599 -3.778769,3.79661 c -6.496532,6.5272 -11.03475,12.19848 -13.7248973,17.15158 -1.3797752,2.54045 -2.6618074,6.13997 -2.6132028,7.337 0.020672,0.5091 0.1013477,0.36664 0.2651383,-0.46819 0.129484,-0.65997 0.4382684,-1.81929 0.6861876,-2.57627 z M 23.873602,221.55545 c 0,-0.20363 -0.243478,0.0117 -1.367265,1.20901 l -1.209006,1.28813 1.288136,-1.209 c 0.708474,-0.66495 1.288135,-1.24461 1.288135,-1.28814 z m 16.339442,-15.56196 c 2.121564,-1.96395 4.77412,-4.30699 5.894568,-5.20675 2.417494,-1.94134 3.2194,-2.69838 1.901583,-1.7952 -3.080591,2.11133 -11.218109,9.59602 -18.576271,17.086 -4.19932,4.27456 -4.157738,4.24081 1.291873,-1.04825 3.096971,-3.00574 7.366682,-7.07185 9.488247,-9.0358 z m 11.321575,-9.07347 c 0,-0.0746 -0.366101,0.0537 -0.813559,0.28512 -0.447458,0.23139 -0.813559,0.48172 -0.813559,0.5563 0,0.0746 0.366101,-0.0537 0.813559,-0.28512 0.447458,-0.23139 0.813559,-0.48172 0.813559,-0.5563 z m 2.576271,-0.93522 c 0.357625,-0.15368 0.403813,-0.23814 0.135594,-0.24798 -0.223729,-0.008 -0.589831,0.10339 -0.81356,0.24798 -0.49572,0.32036 -0.06755,0.32036 0.677966,0 z m 14.033899,0.0916 c -0.186441,-0.0752 -0.491526,-0.0752 -0.677966,0 -0.186441,0.0752 -0.0339,0.13679 0.338983,0.13679 0.372881,0 0.525423,-0.0616 0.338983,-0.13679 z m -1.355932,-0.27118 c -0.186441,-0.0752 -0.491526,-0.0752 -0.677967,0 -0.18644,0.0752 -0.0339,0.13678 0.338983,0.13678 0.372882,0 0.525424,-0.0616 0.338984,-0.13678 z m -11.118645,-0.27119 c -0.18644,-0.0752 -0.491525,-0.0752 -0.677966,0 -0.18644,0.0752 -0.0339,0.13678 0.338983,0.13678 0.372882,0 0.525424,-0.0616 0.338983,-0.13678 z m 9.630281,-0.007 c -0.259279,-0.0679 -0.747414,-0.0703 -1.084746,-0.005 -0.337331,0.0649 -0.125196,0.1204 0.471415,0.12341 0.59661,0.003 0.87261,-0.0501 0.613331,-0.11794 z m -3.676043,-0.28645 c -1.087881,-0.0516 -2.796356,-0.0513 -3.79661,8.1e-4 -1.000255,0.052 -0.11017,0.0943 1.977966,0.0938 2.088135,-5.4e-4 2.906524,-0.043 1.818644,-0.0946 z"
     id="path3735"
     inkscape:connector-curvature="0" />
  <path
     style="fill:#44aa00;stroke-width:0.27118644"
     d="m 181.43292,444.73349 c -0.85966,-0.0865 -6.76798,-5.9049 -62.66464,-61.71026 C 50.855587,315.22144 24.012587,288.00496 9.8553549,272.59497 c -4.680441,-5.09461 -4.8505812,-5.27025 -3.6332076,-3.75062 2.9899916,3.73237 16.9508567,18.29327 39.1628367,40.84605 8.342291,8.47029 15.11654,15.45179 15.053885,15.51444 -0.13101,0.13101 -40.731866,-40.5038 -49.944051,-49.98582 -5.9872982,-6.16267 -6.1800356,-6.39597 -7.5053826,-9.08474 -2.051588,-4.16214 -2.51185946,-6.23311 -2.51185946,-11.30202 0,-3.44978 0.1046467,-4.59236 0.58368076,-6.37289 0.6943103,-2.58069 2.0034126,-5.42953 3.5753589,-7.78063 0.7248914,-1.08419 7.2142284,-7.8057 17.7158694,-18.3497 17.490652,-17.5612 23.525521,-23.38799 25.959176,-25.06411 1.841309,-1.26816 4.575457,-2.39629 7.712241,-3.18212 2.128057,-0.53313 2.872727,-0.585 6.615371,-0.46085 4.93386,0.16366 6.338207,0.48935 10.228968,2.37222 2.344095,1.1344 3.217936,1.76085 5.830508,4.17992 4.64131,4.29753 38.347381,37.77044 38.191801,37.9276 -0.0746,0.0753 -4.29759,-3.90913 -9.38447,-8.85437 -5.08689,-4.94524 -11.859767,-11.48281 -15.050848,-14.52794 -3.191083,-3.04512 -4.337562,-4.08119 -2.547731,-2.30236 1.78983,1.77882 7.891525,7.74521 13.559319,13.25863 5.6678,5.51342 21.06698,20.66186 34.22041,33.66319 29.33459,28.99537 45.40185,44.48208 52.38616,50.49329 l 1.97501,1.69984 0.99735,-0.86269 c 4.51826,-3.90825 45.36976,-43.69565 71.23463,-69.3791 11.78305,-11.7004 35.82373,-35.64966 53.42373,-53.22058 l 32,-31.94712 70.47225,-0.001 70.47221,-0.001 -1.02259,1.15254 c -10.63181,11.98296 -53.10684,55.05835 -138.57239,140.53106 -71.72087,71.7269 -122.19972,121.69938 -137.34948,135.97167 -8.60825,8.10967 -13.32566,10.44908 -21.69491,10.75872 -6.41518,0.23735 -9.60084,0.29733 -10.57628,0.19911 z M 1.5503789,259.12039 c -0.08657,-0.21633 -0.1508292,-0.15208 -0.1638418,0.16384 -0.011775,0.28588 0.052319,0.44605 0.1424323,0.35594 0.090113,-0.0901 0.099747,-0.32402 0.021409,-0.51978 z m -0.2711865,-1.35593 c -0.08657,-0.21634 -0.1508292,-0.15208 -0.1638418,0.16384 -0.011775,0.28588 0.052319,0.44605 0.1424324,0.35593 0.090113,-0.0901 0.099747,-0.32401 0.021409,-0.51977 z m 0,-5.69492 c -0.08657,-0.21633 -0.1508292,-0.15207 -0.1638418,0.16385 -0.011775,0.28587 0.052319,0.44604 0.1424324,0.35593 0.090113,-0.0901 0.099747,-0.32402 0.021409,-0.51978 z m 1.0538555,-3.68179 c -0.1367409,-0.13675 -0.9704618,2.39904 -0.9533366,2.89959 0.00802,0.23445 0.2468093,-0.30104 0.5306405,-1.18998 0.2838313,-0.88894 0.4740446,-1.65827 0.4226961,-1.70961 z m 0.9111655,-1.82668 c 0,-0.14915 -0.1744021,0.0339 -0.3875604,0.40678 -0.2131582,0.37288 -0.3875604,0.8 -0.3875604,0.94915 0,0.14915 0.1744022,-0.0339 0.3875604,-0.40678 0.2131583,-0.37288 0.3875604,-0.8 0.3875604,-0.94915 z m 0.6971854,-1.22034 c 0.2313893,-0.44746 0.3596909,-0.81356 0.2851146,-0.81356 -0.074576,0 -0.3249117,0.3661 -0.556301,0.81356 -0.2313893,0.44746 -0.3596909,0.81356 -0.2851146,0.81356 0.074576,0 0.3249117,-0.3661 0.556301,-0.81356 z m 3.4244217,-5.35593 c 0.337321,-0.43012 0.3277291,-0.43971 -0.1023878,-0.10239 -0.2610169,0.2047 -0.4745763,0.41826 -0.4745763,0.47457 0,0.2232 0.2226945,0.0796 0.5769641,-0.37218 z m 0.8135593,-1.08475 c 0.337321,-0.43012 0.3277291,-0.43971 -0.1023878,-0.10239 -0.2610169,0.20471 -0.4745762,0.41827 -0.4745762,0.47458 0,0.2232 0.2226945,0.0795 0.576964,-0.37219 z m 2.2855022,-2.84746 c 1.025331,-1.2305 2.477469,-2.90847 3.226973,-3.72881 0.749504,-0.82034 1.015292,-1.18644 0.590641,-0.81356 -0.424651,0.37288 -1.758332,1.83729 -2.963735,3.25424 -3.0557584,3.59204 -3.0018604,3.52542 -2.8524825,3.52542 0.073901,0 0.9732722,-1.00678 1.9986035,-2.23729 z m 6.493466,-7.25423 c 0.582574,-0.59661 0.998209,-1.08475 0.923633,-1.08475 -0.07458,0 -0.612245,0.48814 -1.194819,1.08475 -0.582575,0.59661 -0.99821,1.08474 -0.923633,1.08474 0.07458,0 0.612245,-0.48813 1.194819,-1.08474 z m 25.491525,-24.87981 c 3.69152,-3.28288 4.492844,-4.05182 2.860356,-2.74475 -2.413663,1.93252 -7.428469,6.57968 -12.210688,11.31549 -4.178153,4.1376 -4.096266,4.07142 1.214739,-0.98177 3.132204,-2.98016 6.793221,-6.39519 8.135593,-7.58897 z m 42.169492,3.32048 c -1.111178,-1.11864 -2.08134,-2.03389 -2.155916,-2.03389 -0.07458,0 0.773551,0.91525 1.88473,2.03389 1.111178,1.11865 2.081339,2.0339 2.155916,2.0339 0.07458,0 -0.773552,-0.91525 -1.88473,-2.0339 z m -2.711864,-2.38307 c 0,-0.0429 -0.640678,-0.68357 -1.423729,-1.42373 l -1.423729,-1.34574 1.345738,1.42373 c 1.250484,1.32295 1.50172,1.5481 1.50172,1.34574 z m -3.254238,-2.98746 c 0,-0.0453 -0.457627,-0.50294 -1.016949,-1.01694 l -1.016949,-0.93456 0.934555,1.01695 c 0.86986,0.94655 1.099343,1.14164 1.099343,0.93455 z m -31.151848,-2.29048 c 0.337321,-0.43012 0.327729,-0.43971 -0.102389,-0.10239 -0.261017,0.2047 -0.474576,0.41826 -0.474576,0.47457 0,0.2232 0.222695,0.0796 0.576965,-0.37218 z m 27.355238,-1.00999 c 0,-0.16448 -1.529665,-0.95981 -1.817041,-0.94475 -0.119271,0.006 0.210261,0.24521 0.732295,0.53101 1.068874,0.58518 1.084746,0.59124 1.084746,0.41374 z m -2.847457,-1.37269 c -0.447458,-0.20489 -0.996611,-0.36874 -1.220339,-0.36412 -0.223729,0.005 0.02034,0.17288 0.542372,0.37392 1.238156,0.47681 1.725305,0.46977 0.677967,-0.01 z m -12.412429,-1.91676 c -0.09011,-0.0901 -0.324014,-0.0997 -0.519775,-0.0214 -0.216333,0.0866 -0.152076,0.15082 0.163843,0.16384 0.285874,0.0118 0.446045,-0.0523 0.355932,-0.14244 z"
     id="path3737"
     inkscape:connector-curvature="0" />
  <path
     style="fill:#44aa00;stroke-width:0.27118644"
     d=""
     id="path3739"
     inkscape:connector-curvature="0" />
  <path
     style="fill:#44aa00;stroke-width:0.27118644"
     d="m 181.40106,444.73099 c -0.90332,-0.089 -6.32655,-5.43387 -68.47458,-67.48486 -37.121455,-37.0635 -64.082098,-63.97025 -59.912541,-59.79278 4.169559,4.17748 7.513795,7.66263 7.431636,7.74478 C 60.254142,325.38957 8.6831295,273.63856 5.9694083,270.53183 1.9066464,265.88068 -0.052573,259.80299 0.37857331,253.18851 0.71294177,248.05876 2.581325,243.16882 5.6796209,239.3146 7.592595,236.93489 43.169608,201.45003 46.246484,198.85281 c 2.339145,-1.9745 5.237822,-3.5156 8.542373,-4.5416 1.811625,-0.56249 2.567351,-0.6315 6.915254,-0.6315 5.748556,0 7.006763,0.25938 11.155227,2.29968 2.10925,1.03737 3.339094,1.88355 5.288135,3.63842 3.616478,3.25619 41.075817,40.47399 40.912567,40.64875 -0.0746,0.0798 -4.04067,-3.64319 -8.81356,-8.27339 -5.78827,-5.61524 -6.60099,-6.35513 -2.44067,-2.22194 15.5726,15.47106 59.74675,58.92648 65.49152,64.42595 7.53184,7.21024 12.74267,12.06817 16.22347,15.12473 l 2.52855,2.22038 1.26806,-1.14237 c 10.49628,-9.45586 53.41982,-51.6231 112.99687,-111.00592 l 43.38983,-43.24837 70.46479,-0.0126 70.46478,-0.0126 -0.73415,0.88136 c -3.43035,4.11808 -23.89058,25.21794 -52.77334,54.42313 -76.69267,77.54881 -209.73242,209.88955 -225.84162,224.65502 -6.17459,5.65956 -11.6646,8.15366 -18.59741,8.44879 -4.92967,0.20987 -10.24293,0.30511 -11.2861,0.2023 z M 42.856653,306.82971 c 0,-0.0387 -2.471186,-2.50987 -5.491525,-5.49152 l -5.491526,-5.42119 5.421185,5.49153 c 5.037053,5.1024 5.561866,5.61394 5.561866,5.42118 z m -12.20339,-12.47566 c 0,-0.0393 -1.738983,-1.77827 -3.864407,-3.86441 l -3.864406,-3.79298 3.792977,3.86441 c 3.523503,3.58986 3.935836,3.98722 3.935836,3.79298 z m -8.135593,-8.408 c 0,-0.04 -1.311864,-1.35181 -2.915254,-2.91525 l -2.915254,-2.84261 2.842612,2.91525 c 2.640279,2.70775 2.987896,3.03847 2.987896,2.84261 z m -5.694915,-5.96761 c 0,-0.0408 -1.00678,-1.04757 -2.237288,-2.23729 l -2.237289,-2.16313 2.16313,2.23729 c 2.009048,2.07792 2.311447,2.36092 2.311447,2.16313 z m -4.881356,-5.15545 c 0,-0.0424 -0.701695,-0.74408 -1.559322,-1.55932 l -1.5593223,-1.48226 1.4822613,1.55932 c 1.377068,1.44866 1.636383,1.68355 1.636383,1.48226 z m -3.2542375,-3.53076 c 0,-0.0453 -0.4576271,-0.50294 -1.0169491,-1.01695 l -1.0169492,-0.93455 0.9345538,1.01695 c 0.8698622,0.94655 1.0993445,1.14164 1.0993445,0.93455 z m 1.4915255,-34.90065 c 0.269962,-0.29831 0.429824,-0.54238 0.355247,-0.54238 -0.07458,0 -0.356471,0.24407 -0.6264335,0.54238 -0.2699623,0.2983 -0.4298237,0.54237 -0.3552474,0.54237 0.074576,0 0.3564715,-0.24407 0.6264339,-0.54237 z m 1.491525,-1.76271 c 0.350304,-0.37289 0.575899,-0.67797 0.501323,-0.67797 -0.07458,0 -0.422205,0.30508 -0.772509,0.67797 -0.350304,0.37288 -0.575899,0.67796 -0.501323,0.67796 0.07458,0 0.422206,-0.30508 0.772509,-0.67796 z m 1.898305,-2.1695 c 0.350304,-0.37288 0.5759,-0.67796 0.501323,-0.67796 -0.07458,0 -0.422205,0.30508 -0.772509,0.67796 -0.350304,0.37289 -0.575899,0.67797 -0.501323,0.67797 0.07458,0 0.422206,-0.30508 0.772509,-0.67797 z m 87.322033,-9.42764 c 0,-0.0394 -1.616948,-1.65639 -3.593219,-3.59322 l -3.59322,-3.52151 3.52151,3.59322 c 3.271189,3.3378 3.664929,3.71613 3.664929,3.52151 z M 33.636314,212.12039 c 0.810148,-0.82034 1.411981,-1.49152 1.337405,-1.49152 -0.07458,0 -0.798444,0.67118 -1.608591,1.49152 -0.810148,0.82034 -1.411981,1.49153 -1.337405,1.49153 0.07458,0 0.798443,-0.67119 1.608591,-1.49153 z m 57.220339,1.12678 c 0,-0.0515 -0.274576,-0.32604 -0.610169,-0.61017 l -0.61017,-0.51661 0.516608,0.61017 c 0.485483,0.57341 0.703731,0.73362 0.703731,0.51661 z m -52.474576,-5.60136 c 1.036068,-1.04406 1.822742,-1.8983 1.748165,-1.8983 -0.07458,0 -0.983284,0.85424 -2.019352,1.8983 -1.036067,1.04407 -1.822741,1.89831 -1.748165,1.89831 0.07458,0 0.983284,-0.85424 2.019352,-1.89831 z m 47.59322,1.00769 c 0,-0.0424 -0.701695,-0.74408 -1.559322,-1.55932 l -1.559322,-1.48226 1.482262,1.55932 c 1.377068,1.44866 1.636382,1.68355 1.636382,1.48226 z M 43.12784,203.11477 c 0,-0.20362 -0.24348,0.0117 -1.367266,1.20901 l -1.209006,1.28814 1.288136,-1.20901 c 0.708475,-0.66495 1.288136,-1.24461 1.288136,-1.28814 z m 37.966101,0.90323 c 0,-0.0563 -0.213559,-0.26987 -0.474576,-0.47457 -0.430118,-0.33733 -0.43971,-0.32773 -0.102389,0.10238 0.35427,0.45173 0.576965,0.59539 0.576965,0.37219 z m -36.610169,-1.93151 c 0.350305,-0.37288 0.575899,-0.67796 0.501323,-0.67796 -0.07458,0 -0.422205,0.30508 -0.77251,0.67796 -0.350305,0.37288 -0.575899,0.67797 -0.501323,0.67797 0.07458,0 0.422205,-0.30509 0.77251,-0.67797 z m 29.694915,-3.9322 c -0.09218,-0.14915 -0.312944,-0.26932 -0.490582,-0.26704 -0.194063,0.002 -0.160615,0.10908 0.0838,0.26704 0.520982,0.33669 0.614861,0.33669 0.40678,0 z"
     id="path3741"
     inkscape:connector-curvature="0" />
  <path
     style="fill:#44aa00;stroke-width:0.27118644"
     d=""
     id="path3743"
     inkscape:connector-curvature="0" />
  <path
     style="fill:#44aa00;stroke-width:0.27118644"
     d=""
     id="path3745"
     inkscape:connector-curvature="0" />
  <path
     style="fill:#44aa00;stroke-width:0.27118644"
     d=""
     id="path3747"
     inkscape:connector-curvature="0" />
  <path
     style="fill:#44aa00;stroke-width:0.09587888"
     d="m 170.37984,291.33049 c -0.89674,-0.88287 -2.62256,-2.57676 -3.83515,-3.7642 -15.8297,-15.50133 -29.20288,-28.68979 -29.14764,-28.74503 0.0288,-0.0288 0.2242,0.11534 0.43417,0.32037 0.20997,0.20502 0.38176,0.32952 0.38176,0.27666 0,-0.0529 -2.13347,-2.27146 -4.74105,-4.93022 -2.60757,-2.65877 -4.71991,-4.85525 -4.69408,-4.88107 0.0258,-0.0258 9.80682,9.7129 21.73555,21.64163 11.92872,11.92872 21.64545,21.68825 21.59274,21.68783 -0.0527,-3.8e-4 -0.82955,-0.7231 -1.7263,-1.60597 z"
     id="path3749"
     inkscape:connector-curvature="0" />
  <path
     style="fill:#28a745;fill-opacity:1"
     d="M 68.212218,333.32508 C 13.802112,278.87052 5.2342801,270.19318 3.975162,268.26698 3.16965,267.0347 2.121127,264.76321 1.4801595,262.86189 0.26874045,259.2684 -0.05627702,254.76512 0.59392977,250.58272 l 0.15278211,-0.98276 H 64.352612 127.95851 l 5.67854,5.62985 c 11.32315,11.22606 14.24809,14.11403 21.88206,21.6054 11.5476,11.33191 15.30593,14.99912 15.37466,15.00194 0.034,10e-4 0.64431,0.58722 1.35621,1.30183 3.14744,3.15941 12.35688,11.78806 16.77881,15.72066 2.04645,1.81999 2.868,2.48658 3.06332,2.48551 0.49695,-0.003 12.4217,-11.43707 37.34529,-35.80949 2.26515,-2.21505 7.95269,-7.80261 12.63896,-12.41678 4.68628,-4.61417 9.70003,-9.54354 11.14167,-10.95416 l 2.62118,-2.56476 h 5.04222 5.04222 v 62.84861 62.84861 H 188.38167 110.8397 L 86.825262,351.30349 c -21.791934,-21.77311 -22.360734,-22.33436 -6.145961,-6.06434 9.827661,9.86114 20.612549,20.65605 23.966419,23.98868 5.60203,5.56653 6.07381,6.05972 5.80114,6.06433 -0.26964,0.005 -4.13512,-3.83644 -42.234642,-41.96708 z m -5.743562,-6.47132 c 0,-0.0135 -1.283579,-1.29709 -2.852397,-2.85239 l -2.852397,-2.82782 2.827818,2.8524 c 2.627961,2.6508 2.876976,2.89556 2.876976,2.82781 z M 38.805048,302.83671 c -1.953759,-1.99068 -4.019188,-4.07227 -4.589841,-4.62575 -0.570653,-0.55347 -0.153123,-0.10044 0.927843,1.00673 2.759564,2.82648 7.134719,7.23845 7.178041,7.23845 0.01993,0 -1.562283,-1.62874 -3.516043,-3.61943 z M 27.970854,291.71476 c -1.37346,-1.41062 -2.856357,-2.9098 -3.295325,-3.33151 -0.641848,-0.61662 -0.591704,-0.55092 0.256091,0.33557 1.368858,1.43134 5.453316,5.5607 5.500226,5.5607 0.01992,0 -1.087532,-1.15414 -2.460992,-2.56476 z m -7.884021,-8.17714 c -1.227261,-1.26751 -2.278673,-2.3308 -2.33647,-2.36288 -0.0578,-0.0321 0.08835,0.15285 0.324769,0.41095 0.578911,0.632 4.161097,4.25649 4.20681,4.25649 0.01995,0 -0.967847,-1.03705 -2.195109,-2.30456 z m -3.818704,-3.99948 c -0.105445,-0.14501 -0.805966,-0.8677 -1.556713,-1.60597 l -1.364995,-1.3423 1.526215,1.60524 c 0.839419,0.88288 1.53994,1.60557 1.556714,1.60597 0.01677,3.8e-4 -0.05578,-0.11792 -0.161221,-0.26294 z m -4.697838,-4.9857 c -0.105321,-0.14502 -0.633266,-0.69512 -1.17321,-1.22246 l -0.981719,-0.95878 1.139066,1.22245 c 0.626486,0.67235 1.154432,1.22246 1.173211,1.22246 0.01878,0 -0.05203,-0.11865 -0.157348,-0.26367 z m -3.4472658,-3.73928 c -0.2643687,-0.30321 -0.6677336,-0.72388 -0.8963664,-0.93482 l -0.415696,-0.38351 0.3825774,0.43145 c 0.554527,0.62538 1.3307378,1.43819 1.3734237,1.43819 0.020202,0 -0.17957,-0.24809 -0.4439387,-0.55131 z"
     id="path3751"
     inkscape:connector-curvature="0" />
  <path
     style="fill:#44aa00;stroke-width:0.01198486"
     d="m 170.22005,291.20713 c -0.0956,-0.0942 -0.97995,-0.95841 -1.96526,-1.92046 -1.80014,-1.75766 -4.17823,-4.08537 -6.74534,-6.60244 -0.92655,-0.90849 -1.37527,-1.35628 -1.36187,-1.35906 0.0128,-0.003 0.0934,0.0684 0.22531,0.19873 0.11294,0.11159 1.55633,1.52629 3.20754,3.14379 4.61866,4.52434 6.83137,6.69648 6.83137,6.70611 0,0.0179 -0.0381,-0.0152 -0.19175,-0.16667 z"
     id="path3753"
     inkscape:connector-curvature="0" />
  <path
     style="fill:#44aa00;stroke-width:0.00390625"
     d="m 167.50068,288.54842 c -0.23633,-0.23127 -0.86824,-0.84946 -1.40426,-1.37378 -0.83833,-0.82003 -2.3179,-2.26855 -3.09837,-3.03337 l -0.2332,-0.22851 0.0198,-10e-4 0.0198,-0.001 0.0355,0.0344 c 0.0749,0.0727 3.56277,3.49008 4.30827,4.22126 l 0.78418,0.76911 v 0.0171 c 0,0.009 -4.4e-4,0.017 -9.7e-4,0.0169 -5.4e-4,-1.4e-4 -0.19434,-0.18947 -0.43067,-0.42073 z"
     id="path3755"
     inkscape:connector-curvature="0" />
  <path
     style="fill:#44aa00;stroke-width:0.00390625"
     d=""
     id="path3757"
     inkscape:connector-curvature="0" />
  <path
     style="fill:#44aa00;stroke-width:0.00390625"
     d=""
     id="path3759"
     inkscape:connector-curvature="0" />
  <path
     style="fill:#44aa00;stroke-width:0.00390625"
     d=""
     id="path3761"
     inkscape:connector-curvature="0" />
  <path
     style="fill:#44aa00;stroke-width:0.00390625"
     d="m 167.87178,288.86462 c -0.0322,-0.0314 -0.32139,-0.31473 -0.64258,-0.62957 -0.32119,-0.31484 -1.27569,-1.24999 -2.1211,-2.07812 -0.84541,-0.82812 -1.70653,-1.67184 -1.9136,-1.87493 l -0.37649,-0.36924 0.16846,-10e-4 0.16845,-0.001 0.65928,0.66118 c 1.24233,1.24592 3.86253,3.8783 4.05276,4.0716 l 0.0655,0.0666 -0.001,0.10585 -10e-4,0.10585 z"
     id="path3763"
     inkscape:connector-curvature="0" />
  <path
     style="fill:#44aa00;stroke-width:0.00390625"
     d="m 167.88552,288.87832 c -0.0247,-0.024 -0.35074,-0.34342 -0.72461,-0.70977 -0.37387,-0.36635 -1.32839,-1.30146 -2.12117,-2.07803 -0.79277,-0.77657 -1.61706,-1.58425 -1.83175,-1.79485 l -0.39034,-0.38291 0.16894,-10e-4 0.16894,-0.001 0.71165,0.71391 c 1.51956,1.52438 3.9236,3.93983 4.02323,4.04231 l 0.042,0.0433 -0.001,0.10591 -0.001,0.1059 z"
     id="path3765"
     inkscape:connector-curvature="0" />
  <path
     style="fill:#44aa00;stroke-width:0.00390625"
     d="m 167.7956,288.79106 c -0.0741,-0.0728 -0.48105,-0.47154 -0.90429,-0.88619 -1.61172,-1.579 -3.47678,-3.406 -3.76815,-3.69126 -0.16682,-0.16332 -0.30349,-0.29826 -0.30372,-0.29987 -2.2e-4,-0.002 0.0759,-0.003 0.16911,-0.003 h 0.16951 l 0.26897,0.27083 c 0.14793,0.14896 0.89653,0.90086 1.66355,1.6709 1.62209,1.62845 2.78773,2.80011 2.81953,2.83408 l 0.0223,0.0238 -0.001,0.10644 -0.001,0.10644 z"
     id="path3767"
     inkscape:connector-curvature="0" />
  <path
     style="fill:#44aa00;stroke-width:0.00390625"
     d="m 167.53384,288.30349 c -0.7157,-0.71932 -2.92078,-2.93413 -3.65371,-3.66982 l -0.7182,-0.72091 0.0286,-10e-4 0.0286,-0.001 2.35678,2.35678 2.35677,2.35678 -0.001,0.039 -0.001,0.039 z"
     id="path3769"
     inkscape:connector-curvature="0" />
  <path
     style="fill:#44aa00;stroke-width:0.00390625"
     d="m 167.80468,288.80045 c -0.15115,-0.14823 -0.56088,-0.54981 -1.08525,-1.06365 -0.21484,-0.21054 -0.99531,-0.97508 -1.73437,-1.699 -2.1107,-2.06743 -2.16602,-2.12171 -2.16602,-2.1255 0,-8.2e-4 0.0761,-0.001 0.1691,-0.001 h 0.1691 l 0.82182,0.82519 c 0.452,0.45386 1.03473,1.03877 1.29495,1.29981 0.26022,0.26103 0.83246,0.83584 1.27164,1.27734 0.43918,0.4415 0.93085,0.93558 1.09259,1.09794 l 0.29408,0.2952 v 0.10812 c 0,0.0595 -7.1e-4,0.10811 -0.002,0.10811 -8.7e-4,0 -0.0576,-0.0549 -0.12606,-0.12207 z"
     id="path3771"
     inkscape:connector-curvature="0" />
  <path
     style="fill:#44aa00;stroke-width:0.00390625"
     d="m 167.86982,288.90954 c -0.0333,-0.0329 -0.29345,-0.28732 -0.57812,-0.5654 -0.56314,-0.55012 -1.92422,-1.88149 -2.51953,-2.46454 -0.20518,-0.20095 -0.62793,-0.61494 -0.93946,-0.91997 -0.93245,-0.91302 -0.97867,-0.9583 -1.02537,-1.00445 l -0.0449,-0.0444 h 0.0222 0.0222 l 0.21215,0.20807 c 0.11668,0.11445 0.95306,0.934 1.85863,1.82124 0.90556,0.88724 1.96333,1.92398 2.35058,2.30387 l 0.7041,0.6907 v 0.0174 c 0,0.01 -4.4e-4,0.0173 -9.7e-4,0.0173 -5.4e-4,0 -0.0282,-0.0269 -0.0615,-0.0598 z"
     id="path3773"
     inkscape:connector-curvature="0" />
  <path
     style="fill:#44aa00;stroke-width:0.00390625"
     d="m 164.15889,285.28776 c -0.0117,-0.0118 -0.0195,-0.0215 -0.0173,-0.0215 0.002,0 0.0135,0.01 0.0251,0.0215 0.0117,0.0118 0.0195,0.0215 0.0173,0.0215 -0.002,0 -0.0135,-0.01 -0.0251,-0.0215 z"
     id="path3775"
     inkscape:connector-curvature="0" />
  <path
     style="fill:#44aa00;stroke-width:0.00390625"
     d="m 157.07295,286.47135 v -2.56054 h 2.83945 2.83945 l 0.70167,0.6875 c 0.38592,0.37812 0.70382,0.68748 0.70645,0.68747 0.006,-4e-5 -0.0154,-0.0211 -0.60264,-0.59594 -0.69932,-0.68456 -0.79298,-0.77642 -0.79298,-0.77779 0,-6.8e-4 0.01,-0.001 0.0214,-0.001 h 0.0214 l 1.07923,1.05752 c 0.59357,0.58164 1.51604,1.48559 2.04993,2.00878 0.53389,0.52319 1.20125,1.17714 1.48303,1.45322 l 0.51233,0.50196 3.6e-4,0.0194 3.7e-4,0.0194 -0.0557,-0.0547 c -0.0306,-0.0301 -0.21211,-0.20754 -0.40332,-0.39434 -0.53481,-0.52246 -1.45872,-1.4261 -2.78516,-2.72403 -0.25781,-0.25227 -0.48057,-0.47017 -0.49501,-0.48421 -0.0144,-0.014 -0.0273,-0.0245 -0.0285,-0.0233 -0.001,10e-4 0.16265,0.16379 0.36415,0.36125 0.56864,0.55725 1.7884,1.75104 2.63471,2.57863 l 0.76812,0.75113 0.001,0.0252 0.001,0.0253 h -5.43066 l -5.43066,-2e-5 z"
     id="path3777"
     inkscape:connector-curvature="0" />
  <path
     style="fill:#44aa00;stroke-width:0.00390625"
     d="m 157.07295,286.47135 v -2.56054 h 2.84005 2.84005 l 0.20194,0.19829 c 0.23358,0.22937 0.88257,0.86476 1.06431,1.04201 0.0683,0.0666 0.12626,0.12157 0.12891,0.12224 0.006,0.001 0.0392,0.0344 -0.75082,-0.7395 l -0.63405,-0.62109 0.022,-10e-4 0.022,-0.001 0.67484,0.66138 c 0.37116,0.36376 1.15824,1.13505 1.74906,1.71398 1.06902,1.04751 2.04634,2.00542 2.47457,2.42544 l 0.22465,0.22034 10e-4,0.0199 0.001,0.0199 -0.0441,-0.0433 c -0.0243,-0.0238 -0.27967,-0.27345 -0.56756,-0.55469 -0.28789,-0.28124 -0.84688,-0.82772 -1.24219,-1.21441 -1.49655,-1.4639 -1.82538,-1.78558 -1.86445,-1.82389 -0.0221,-0.0217 -0.0392,-0.0367 -0.038,-0.0335 10e-4,0.003 0.0765,0.0789 0.16718,0.16797 0.27836,0.27334 1.88783,1.84876 2.89411,2.83287 l 0.694,0.6787 10e-4,0.0254 0.001,0.0254 h -5.43067 l -5.43066,-2e-5 z"
     id="path3779"
     inkscape:connector-curvature="0" />
  <path
     style="fill:#44aa00;stroke-width:0.01104854"
     d="m 179.0272,443.37309 c -1.67614,-0.99522 -3.14863,-2.10124 -4.56297,-3.42735 -0.10638,-0.0998 -2.36364,-2.35074 -5.01612,-5.00221 l -4.82269,-4.82084 0.22599,-2e-5 0.22599,-2e-5 0.74628,0.74391 c 1.31384,1.30965 5.67548,5.62517 7.67372,7.59256 2.01351,1.98243 3.28694,3.21886 3.5442,3.44123 0.0423,0.0366 0.0691,0.0385 0.0396,0.003 -0.23058,-0.27906 -1.69955,-1.8035 -3.47349,-3.60466 -2.12747,-2.16011 -2.78317,-2.8249 -4.05386,-4.11006 -1.54486,-1.56245 -2.43163,-2.45697 -3.43669,-3.4667 l -0.59682,-0.5996 0.16228,0.003 0.16229,0.003 5.84587,5.82811 c 3.21523,3.20546 6.23468,6.21441 6.70991,6.68656 0.47522,0.47215 0.85906,0.85839 0.85298,0.85831 -0.006,-1.1e-4 -0.10799,-0.0577 -0.22649,-0.12806 z"
     id="path3781"
     inkscape:connector-curvature="0" />
  <path
     style="fill:#44aa00;stroke-width:0.04419417"
     d="m 190.07164,446.81059 c -2.49747,-0.19934 -4.81331,-0.71802 -7.21628,-1.61626 l -0.34409,-0.12862 1.09539,-0.142 1.09538,-0.142 2.78424,-4.9e-4 c 5.87796,-0.001 7.86963,-0.15845 10.61471,-0.83895 2.71674,-0.67348 5.20236,-1.80853 8.09364,-3.69593 1.04859,-0.68451 2.53799,-1.76442 3.11655,-2.25969 0.92771,-0.79415 2.91538,-2.63899 5.49814,-5.10305 l 1.33688,-1.27544 v 0.85404 0.85404 l -3.48029,3.47179 c -1.91416,1.90948 -3.68911,3.6512 -3.94433,3.87049 -4.14985,3.56559 -9.2398,5.69788 -14.6428,6.13421 -0.90024,0.0727 -3.19209,0.0829 -4.00714,0.0179 z"
     id="path3783"
     inkscape:connector-curvature="0" />
  <path
     style="fill:#44aa00;stroke-width:0.04419417"
     d="m 189.71808,446.76898 c -2.34185,-0.24319 -4.53729,-0.74027 -6.5711,-1.48779 l -0.56626,-0.20812 1.06066,-0.14028 c 0.58337,-0.0772 0.98111,-0.14146 0.88389,-0.14291 -0.0972,-10e-4 -0.59441,0.0535 -1.10486,0.12203 l -0.92807,0.12466 -0.14597,-0.13794 -0.14596,-0.13793 -0.83508,-0.0221 -0.83508,-0.0221 -0.72043,-0.70473 c -0.73323,-0.71725 -9.24369,-9.20123 -22.06921,-22.00054 l -7.11824,-7.1037 h 32.76191 32.76192 v 8.32796 8.32796 l -1.35897,1.29756 c -2.80588,2.67906 -4.93034,4.64317 -5.76734,5.33202 -0.40833,0.33605 -0.45602,0.4088 -0.0703,0.1072 0.76617,-0.59905 2.61982,-2.31369 7.00974,-6.48408 l 0.18882,-0.17938 -0.012,0.84423 -0.012,0.84423 -3.60699,3.5775 c -1.98384,1.96763 -3.80354,3.74193 -4.04377,3.9429 -3.64347,3.04797 -8.05675,5.04535 -12.65566,5.72774 -1.30393,0.19348 -1.58207,0.21036 -3.66892,0.22257 -1.13026,0.007 -2.22407,-0.006 -2.43068,-0.027 z m -0.0331,-2.01931 c -0.90543,-0.007 -2.38704,-0.007 -3.29247,0 -0.90543,0.007 -0.16462,0.0121 1.64623,0.0121 1.81086,0 2.55167,-0.005 1.64624,-0.0121 z m 2.62955,-0.0438 c -0.16407,-0.008 -0.43255,-0.008 -0.59662,0 -0.16407,0.009 -0.0298,0.0155 0.29831,0.0155 0.32814,0 0.46238,-0.007 0.29831,-0.0155 z m 0.90598,-0.0438 c -0.1033,-0.009 -0.27235,-0.009 -0.37565,0 -0.1033,0.009 -0.0188,0.0169 0.18783,0.0169 0.2066,0 0.29112,-0.008 0.18782,-0.0169 z m 1.73462,-0.12599 c 0.59262,-0.0697 1.38687,-0.19495 1.96664,-0.31002 0.53403,-0.10598 1.81866,-0.42355 1.79778,-0.44443 -0.0105,-0.0105 -0.29504,0.0501 -0.63225,0.13471 -1.17083,0.29381 -2.60031,0.53128 -4.01605,0.66714 -0.62569,0.06 -0.63561,0.0624 -0.17678,0.0419 0.26738,-0.0119 0.74467,-0.0521 1.06066,-0.0893 z m 4.60421,-0.99488 c 2.10775,-0.67884 4.37237,-1.79837 6.64321,-3.28411 0.65619,-0.42932 2.11087,-1.45961 2.32019,-1.64329 l 0.13259,-0.11634 -0.15468,0.10905 c -0.0851,0.06 -0.43311,0.30719 -0.7734,0.54937 -2.99934,2.13455 -5.43101,3.43284 -8.06544,4.30623 -0.49829,0.1652 -0.88249,0.30123 -0.85377,0.3023 0.0287,10e-4 0.3668,-0.0994 0.7513,-0.22321 z"
     id="path3785"
     inkscape:connector-curvature="0" />
  <path
     style="fill:#44aa00;stroke-width:0.04419417"
     d=""
     id="path3787"
     inkscape:connector-curvature="0" />
  <path
     style="fill:#44aa00;stroke-width:0.04419417"
     d=""
     id="path3789"
     inkscape:connector-curvature="0" />
  <path
     style="fill:#44aa00;stroke-width:0.04419417"
     d=""
     id="path3791"
     inkscape:connector-curvature="0" />
  <path
     style="fill:#44aa00;stroke-width:0.04419417"
     d="m 157.03649,422.50893 c -7.34862,-7.34871 -7.59601,-7.60139 -7.44224,-7.60139 0.15218,0 0.41339,0.25278 6.03246,5.83762 3.23037,3.2107 6.66886,6.63133 7.64109,7.6014 l 1.7677,1.76377 h -0.19885 -0.19886 z"
     id="path3793"
     inkscape:connector-curvature="0" />
  <path
     style="fill:#44aa00;stroke-width:0.04419417"
     d="m 190.49148,446.81333 c -2.29964,-0.0933 -5.30534,-0.73171 -7.5572,-1.60504 -0.35017,-0.1358 -0.35208,-0.13739 -0.19888,-0.16574 0.11313,-0.0209 0.0956,-0.0243 -0.0651,-0.0125 -0.19723,0.0145 -0.23453,0.002 -0.36302,-0.1227 l -0.14321,-0.13881 -0.80813,-0.0206 -0.80813,-0.0206 -0.6994,-0.68334 c -0.38467,-0.37584 -0.70964,-0.67311 -0.72215,-0.6606 -0.0295,0.0295 -0.65055,-0.34786 -1.39327,-0.84658 -0.7276,-0.48858 -1.62198,-1.16613 -2.34017,-1.77283 -0.30591,-0.25843 -2.77693,-2.68787 -5.61881,-5.52428 l -5.07276,-5.06298 0.18577,-0.014 c 0.1837,-0.0138 0.192,-0.008 0.7429,0.53033 0.30642,0.29935 -0.51732,-0.53041 -1.83053,-1.84393 -1.31321,-1.31351 -5.00203,-4.98771 -8.19737,-8.16487 l -5.80971,-5.77666 h 0.29 0.29 l 8.96457,9.01561 c 4.93052,4.95858 8.97543,9.01561 8.98869,9.01561 0.0133,0 -0.60058,-0.62494 -1.36411,-1.38876 -1.36827,-1.36879 -1.38613,-1.38897 -1.24129,-1.40317 0.14266,-0.014 -0.0755,-0.23621 -7.48819,-7.62685 l -7.63513,-7.61244 h 32.77468 32.77469 v 8.3388 8.3388 l -0.0994,0.11302 -0.0994,0.11302 0.0994,-0.0839 0.0994,-0.0839 v 0.84216 0.84216 l -3.3919,3.35401 c -3.83742,3.79455 -4.01938,3.96987 -4.62934,4.46046 -3.49207,2.80862 -7.51668,4.63173 -11.83472,5.36103 -1.13187,0.19117 -1.91455,0.26805 -3.1913,0.31347 -1.25463,0.0446 -1.4301,0.0444 -2.60746,-0.003 z m -7.32518,-1.84002 c -0.0425,-0.0111 -0.11215,-0.0111 -0.15468,0 -0.0425,0.0111 -0.008,0.0202 0.0773,0.0202 0.0851,0 0.11987,-0.009 0.0773,-0.0202 z m 0.35355,-0.0442 c -0.0425,-0.0111 -0.11214,-0.0111 -0.15468,0 -0.0425,0.0111 -0.008,0.0202 0.0773,0.0202 0.0851,0 0.11988,-0.009 0.0773,-0.0202 z m 0.30936,-0.0442 c -0.0425,-0.0111 -0.11214,-0.0111 -0.15468,0 -0.0425,0.0111 -0.008,0.0202 0.0773,0.0202 0.0851,0 0.11988,-0.009 0.0773,-0.0202 z m 0.35355,-0.0442 c -0.0425,-0.0111 -0.11214,-0.0111 -0.15468,0 -0.0425,0.0111 -0.008,0.0202 0.0773,0.0202 0.0851,0 0.11988,-0.009 0.0773,-0.0202 z m 0.26425,-0.0404 c -0.0147,-0.0147 -0.0528,-0.0163 -0.0847,-0.003 -0.0352,0.0141 -0.0248,0.0246 0.0267,0.0267 0.0466,0.002 0.0727,-0.009 0.058,-0.0232 z m 2.51999,-0.0491 c -0.0669,-0.0101 -0.17623,-0.0101 -0.24307,0 -0.0668,0.0101 -0.0122,0.0184 0.12153,0.0184 0.13369,0 0.18838,-0.008 0.12154,-0.0184 z m 1.34792,-0.001 c -0.15192,-0.009 -0.40051,-0.009 -0.55243,0 -0.15192,0.009 -0.0276,0.0157 0.27621,0.0157 0.30384,0 0.42814,-0.007 0.27622,-0.0157 z m 6.03302,-0.17442 c -0.0422,-0.0111 -0.1218,-0.0115 -0.17678,-8.9e-4 -0.055,0.0106 -0.0204,0.0196 0.0768,0.0201 0.0972,4.9e-4 0.1422,-0.008 0.1,-0.0192 z m 0.48614,-0.0442 c -0.0423,-0.0111 -0.12181,-0.0115 -0.17678,-8.9e-4 -0.055,0.0106 -0.0204,0.0196 0.0768,0.0201 0.0972,4.9e-4 0.1422,-0.008 0.1,-0.0192 z m 0.35355,-0.0442 c -0.0423,-0.0111 -0.1218,-0.0115 -0.17678,-9e-4 -0.055,0.0106 -0.0204,0.0196 0.0768,0.0201 0.0972,4.9e-4 0.14221,-0.008 0.1,-0.0192 z m 0.30884,-0.0443 c -0.0425,-0.0111 -0.11214,-0.0111 -0.15468,0 -0.0425,0.0111 -0.008,0.0202 0.0773,0.0202 0.0851,0 0.11988,-0.009 0.0773,-0.0202 z m 0.30936,-0.0442 c -0.0425,-0.0111 -0.11214,-0.0111 -0.15468,0 -0.0425,0.0111 -0.008,0.0202 0.0773,0.0202 0.0851,0 0.11988,-0.009 0.0773,-0.0202 z m 0.2881,-0.0427 c -0.0299,-0.0121 -0.0896,-0.0128 -0.13258,-0.002 -0.043,0.0112 -0.0185,0.0211 0.0544,0.022 0.0729,9e-4 0.10811,-0.008 0.0782,-0.0204 z m 0.26517,-0.0442 c -0.0299,-0.0121 -0.0896,-0.0129 -0.13259,-0.002 -0.043,0.0112 -0.0185,0.0211 0.0544,0.022 0.0729,9e-4 0.1081,-0.008 0.0782,-0.0204 z m 0.22013,-0.0445 c -0.0304,-0.0123 -0.0801,-0.0123 -0.11049,0 -0.0304,0.0123 -0.006,0.0223 0.0553,0.0223 0.0608,0 0.0856,-0.01 0.0552,-0.0223 z m 0.26516,-0.0442 c -0.0304,-0.0123 -0.0801,-0.0123 -0.11048,0 -0.0304,0.0123 -0.006,0.0223 0.0552,0.0223 0.0608,0 0.0856,-0.01 0.0552,-0.0223 z m 0.19796,-0.0416 c -0.0147,-0.0147 -0.0528,-0.0163 -0.0847,-0.003 -0.0352,0.0141 -0.0248,0.0246 0.0267,0.0267 0.0466,0.002 0.0727,-0.009 0.058,-0.0232 z m 0.22097,-0.0442 c -0.0147,-0.0147 -0.0528,-0.0163 -0.0847,-0.003 -0.0352,0.0141 -0.0248,0.0246 0.0267,0.0267 0.0466,0.002 0.0727,-0.009 0.058,-0.0232 z m 5.71427,-2.00687 c 0.14515,-0.0733 0.26391,-0.14316 0.26391,-0.15532 0,-0.0198 -0.52582,0.23046 -0.57084,0.27168 -0.0547,0.0501 0.0736,10e-4 0.30693,-0.11636 z m -26.07002,-0.36803 c -0.0271,-0.0326 -0.04,-0.0686 -0.0286,-0.0799 0.0113,-0.0113 -0.087,-0.12685 -0.21842,-0.25669 -0.13765,-0.13594 -0.23442,-0.20459 -0.22815,-0.16185 0.006,0.0408 0.11834,0.18302 0.24967,0.316 0.2219,0.22469 0.33954,0.31988 0.2255,0.18247 z m 0.65711,0.0482 c 0,-0.006 -1.82466,-1.83079 -4.05481,-4.05482 l -4.05482,-4.04367 4.04368,4.05481 c 2.22402,2.23015 4.04869,4.05482 4.05482,4.05482 0.006,0 0.0111,-0.005 0.0111,-0.0111 z m 26.33973,-0.19084 c 0,-0.0122 -0.0398,-8.1e-4 -0.0884,0.0252 -0.0486,0.026 -0.0884,0.0573 -0.0884,0.0694 0,0.0122 0.0398,8.1e-4 0.0884,-0.0252 0.0486,-0.026 0.0884,-0.0573 0.0884,-0.0694 z m 0.39775,-0.22098 c 0,-0.0121 -0.0398,-8e-4 -0.0884,0.0252 -0.0486,0.026 -0.0884,0.0573 -0.0884,0.0694 0,0.0122 0.0398,8.1e-4 0.0884,-0.0252 0.0486,-0.026 0.0884,-0.0572 0.0884,-0.0694 z m 0.30936,-0.17677 c 0,-0.0122 -0.0398,-8.1e-4 -0.0884,0.0252 -0.0486,0.026 -0.0884,0.0573 -0.0884,0.0694 0,0.0122 0.0398,8e-4 0.0884,-0.0252 0.0486,-0.026 0.0884,-0.0572 0.0884,-0.0694 z m -28.54944,-0.25162 c 0,-0.006 -0.27345,-0.27987 -0.60767,-0.60767 l -0.60767,-0.59601 0.59601,0.60767 c 0.55365,0.56449 0.61933,0.62769 0.61933,0.59601 z m 0,-0.17696 c 0,-0.007 -0.21379,-0.2203 -0.47508,-0.47508 l -0.47509,-0.46325 0.46325,0.47509 c 0.43027,0.44127 0.48692,0.49516 0.48692,0.46324 z m 29.43332,-0.10175 c 0,-0.0122 -0.0398,-8.1e-4 -0.0884,0.0252 -0.0486,0.026 -0.0884,0.0573 -0.0884,0.0694 0,0.0122 0.0398,8e-4 0.0884,-0.0252 0.0486,-0.026 0.0884,-0.0572 0.0884,-0.0694 z m 0.41985,-0.26126 0.0884,-0.072 -0.0884,0.0434 c -0.0486,0.0239 -0.12817,0.0758 -0.17678,0.11536 l -0.0884,0.072 0.0884,-0.0434 c 0.0486,-0.0239 0.12816,-0.0758 0.17678,-0.11536 z m 1.13259,-0.76315 c 0.055,-0.0701 0.0534,-0.0717 -0.0167,-0.0167 -0.0425,0.0334 -0.0773,0.0682 -0.0773,0.0773 0,0.0364 0.0363,0.013 0.094,-0.0607 z m -32.31158,-0.2435 c 0,-0.006 -0.38283,-0.38915 -0.85074,-0.85074 l -0.85074,-0.83925 0.83926,0.85074 c 0.77976,0.79043 0.86222,0.87069 0.86222,0.83925 z m -0.7955,-0.53026 c 0,-0.006 -0.45244,-0.45872 -1.00541,-1.00542 l -1.00542,-0.994 0.994,1.00542 c 0.92362,0.93423 1.01683,1.02535 1.01683,0.994 z m 35.31115,-0.85037 c 0.0571,-0.0608 0.0939,-0.11049 0.0817,-0.11049 -0.0121,0 -0.0688,0.0497 -0.12589,0.11049 -0.0571,0.0608 -0.0939,0.11048 -0.0817,0.11048 0.0121,0 0.0688,-0.0497 0.12589,-0.11048 z m 0.30936,-0.26517 c 0.0824,-0.0851 0.13997,-0.15468 0.12782,-0.15468 -0.0121,0 -0.0896,0.0696 -0.17202,0.15468 -0.0825,0.0851 -0.13997,0.15468 -0.12782,0.15468 0.0121,0 0.0896,-0.0696 0.17202,-0.15468 z m 0.37565,-0.33145 c 0.0949,-0.0972 0.16267,-0.17678 0.15052,-0.17678 -0.0122,0 -0.0998,0.0795 -0.19472,0.17678 -0.0949,0.0972 -0.16267,0.17677 -0.15052,0.17677 0.0122,0 0.0998,-0.0795 0.19472,-0.17677 z m 0.48613,-0.44195 c 0.11971,-0.12153 0.20771,-0.22097 0.19555,-0.22097 -0.0121,0 -0.12004,0.0994 -0.23974,0.22097 -0.11971,0.12154 -0.2077,0.22097 -0.19555,0.22097 0.0121,0 0.12004,-0.0994 0.23974,-0.22097 z m 0.53033,-0.48613 c 0.11971,-0.12154 0.20771,-0.22097 0.19555,-0.22097 -0.0122,0 -0.12004,0.0994 -0.23974,0.22097 -0.11971,0.12153 -0.2077,0.22097 -0.19555,0.22097 0.0121,0 0.12004,-0.0994 0.23974,-0.22097 z m -40.1504,-1.08276 c -0.69243,-0.69274 -1.2689,-1.25953 -1.28105,-1.25953 -0.0122,0 0.54443,0.56679 1.23685,1.25953 0.69243,0.69274 1.2689,1.25953 1.28105,1.25953 0.0121,0 -0.54443,-0.56679 -1.23685,-1.25953 z m 40.72493,0.55243 c 0.14432,-0.14584 0.25245,-0.26517 0.2403,-0.26517 -0.0122,0 -0.14018,0.11933 -0.2845,0.26517 -0.14432,0.14584 -0.25245,0.26516 -0.2403,0.26516 0.0122,0 0.14018,-0.11932 0.2845,-0.26516 z m -40.90171,-0.36483 c 0,-0.006 -0.74081,-0.747 -1.64623,-1.64623 l -1.64624,-1.63496 1.63496,1.64623 c 1.51956,1.53003 1.65751,1.66611 1.65751,1.63496 z m 41.58672,-0.27599 c 0.15659,-0.15799 0.27476,-0.28726 0.26261,-0.28726 -0.0122,0 -0.15022,0.12927 -0.30681,0.28726 -0.15659,0.158 -0.27476,0.28726 -0.26261,0.28726 0.0122,0 0.15022,-0.12926 0.30681,-0.28726 z m 0.7071,-0.66291 c 0.15659,-0.15799 0.27477,-0.28726 0.26261,-0.28726 -0.0121,0 -0.15021,0.12927 -0.3068,0.28726 -0.15659,0.15799 -0.27476,0.28726 -0.26261,0.28726 0.0121,0 0.15022,-0.12927 0.3068,-0.28726 z m 0.7955,-0.7513 c 0.20553,-0.20661 0.36375,-0.37565 0.3516,-0.37565 -0.0121,0 -0.19026,0.16904 -0.3958,0.37565 -0.20553,0.20661 -0.36375,0.37565 -0.3516,0.37565 0.0122,0 0.19027,-0.16904 0.3958,-0.37565 z m 0.88388,-0.83969 c 0.20554,-0.20661 0.36376,-0.37565 0.3516,-0.37565 -0.0121,0 -0.19026,0.16904 -0.39579,0.37565 -0.20554,0.20661 -0.36376,0.37565 -0.3516,0.37565 0.0121,0 0.19026,-0.16904 0.39579,-0.37565 z m 0.90598,-0.86179 c 0.24216,-0.24306 0.43034,-0.44194 0.41819,-0.44194 -0.0122,0 -0.22022,0.19888 -0.46238,0.44194 -0.24216,0.24307 -0.43034,0.44194 -0.41819,0.44194 0.0121,0 0.22023,-0.19887 0.46238,-0.44194 z"
     id="path3795"
     inkscape:connector-curvature="0" />
  <path
     style="fill:#44aa00;stroke-width:0.04419417"
     d="m 190.46938,446.81311 c -2.15293,-0.0919 -4.70306,-0.60749 -6.98268,-1.41186 -1.07035,-0.37767 -1.04681,-0.36768 -1.19098,-0.50581 l -0.12916,-0.12373 -0.80915,-0.0232 -0.80916,-0.0232 -0.70434,-0.67768 c -0.38739,-0.37272 -0.71246,-0.66955 -0.72238,-0.65963 -0.0258,0.0258 -0.72967,-0.40653 -1.40821,-0.86489 -0.72297,-0.48837 -1.61525,-1.16542 -2.32398,-1.7634 -0.30403,-0.25652 -2.77313,-2.68371 -5.61575,-5.52045 l -5.07316,-5.06264 0.19958,-0.0221 0.19959,-0.0221 -7.64598,-7.6014 -7.64599,-7.6014 0.27571,-0.0134 0.27572,-0.0134 2.87786,2.88601 c 1.58283,1.58731 5.43265,5.45149 8.55516,8.58707 3.12252,3.13557 5.2492,5.26849 4.72597,4.73982 -0.73462,-0.74226 -0.92876,-0.96122 -0.85227,-0.96122 0.0545,0 0.0999,-0.0249 0.10084,-0.0553 9.8e-4,-0.0304 -3.41208,-3.46095 -7.58459,-7.62349 l -7.58636,-7.56825 h 32.77526 32.77527 v 8.33817 c 0,7.87694 -0.004,8.34321 -0.0773,8.42927 -0.0737,0.0868 -0.0737,0.0883 0,0.0312 0.073,-0.0566 0.0773,-0.0132 0.0773,0.78083 v 0.84073 l -3.34771,3.31029 c -3.78293,3.74065 -4.05895,4.00658 -4.67353,4.50275 -3.52319,2.84439 -7.69581,4.71057 -12.08711,5.40591 -0.98465,0.15591 -1.75948,0.22769 -2.91275,0.26984 -1.24456,0.0455 -1.51766,0.0451 -2.65572,-0.003 z m -7.70175,-1.79185 c -0.0147,-0.0147 -0.0528,-0.0162 -0.0847,-0.003 -0.0352,0.0141 -0.0248,0.0246 0.0267,0.0267 0.0466,0.002 0.0727,-0.009 0.058,-0.0232 z m 0.37657,-0.0468 c -0.0304,-0.0123 -0.0801,-0.0123 -0.11049,0 -0.0304,0.0123 -0.006,0.0223 0.0552,0.0223 0.0608,0 0.0856,-0.01 0.0552,-0.0223 z m 0.35355,-0.0442 c -0.0304,-0.0123 -0.0801,-0.0123 -0.11048,0 -0.0304,0.0123 -0.006,0.0223 0.0552,0.0223 0.0608,0 0.0856,-0.01 0.0552,-0.0223 z m 0.30936,-0.0442 c -0.0304,-0.0123 -0.0801,-0.0123 -0.11048,0 -0.0304,0.0123 -0.006,0.0223 0.0552,0.0223 0.0608,0 0.0856,-0.01 0.0552,-0.0223 z m 0.33054,-0.0416 c -0.0147,-0.0147 -0.0528,-0.0163 -0.0847,-0.003 -0.0353,0.0141 -0.0248,0.0246 0.0267,0.0267 0.0466,0.002 0.0727,-0.009 0.058,-0.0232 z m 3.97839,-0.0922 c -0.0425,-0.0111 -0.11214,-0.0111 -0.15468,0 -0.0425,0.0111 -0.008,0.0202 0.0773,0.0202 0.0851,0 0.11988,-0.009 0.0773,-0.0202 z m 6.18627,-0.17301 c -0.0147,-0.0147 -0.0528,-0.0163 -0.0847,-0.003 -0.0352,0.0141 -0.0248,0.0246 0.0267,0.0267 0.0466,0.002 0.0727,-0.009 0.058,-0.0232 z m 0.48613,-0.0442 c -0.0147,-0.0147 -0.0528,-0.0163 -0.0847,-0.003 -0.0353,0.0141 -0.0248,0.0246 0.0267,0.0267 0.0466,0.002 0.0727,-0.009 0.058,-0.0232 z m 0.35356,-0.0442 c -0.0147,-0.0147 -0.0528,-0.0163 -0.0847,-0.003 -0.0352,0.0141 -0.0248,0.0246 0.0267,0.0267 0.0466,0.002 0.0727,-0.009 0.058,-0.0232 z m 0.33237,-0.0468 c -0.0304,-0.0123 -0.0801,-0.0123 -0.11048,0 -0.0304,0.0123 -0.006,0.0223 0.0552,0.0223 0.0608,0 0.0856,-0.01 0.0552,-0.0223 z m 0.30936,-0.0442 c -0.0304,-0.0123 -0.0801,-0.0123 -0.11048,0 -0.0304,0.0123 -0.006,0.0223 0.0552,0.0223 0.0608,0 0.0856,-0.01 0.0552,-0.0223 z m 0.28635,-0.0416 c -0.0147,-0.0147 -0.0528,-0.0162 -0.0847,-0.003 -0.0352,0.0141 -0.0248,0.0246 0.0267,0.0267 0.0466,0.002 0.0727,-0.009 0.058,-0.0232 z m 0.26516,-0.0442 c -0.0147,-0.0147 -0.0528,-0.0163 -0.0847,-0.003 -0.0352,0.0141 -0.0248,0.0246 0.0267,0.0267 0.0466,0.002 0.0727,-0.009 0.058,-0.0232 z m 6.64285,-2.18391 c 0.0963,-0.0491 0.17502,-0.0992 0.17502,-0.11138 0,-0.0198 -0.34886,0.14309 -0.39406,0.184 -0.0489,0.0443 0.062,0.007 0.21904,-0.0726 z m -26.11472,-0.41196 c -0.0271,-0.0326 -0.0398,-0.0687 -0.0283,-0.0802 0.0115,-0.0115 -0.0569,-0.0969 -0.15203,-0.18977 -0.22893,-0.22354 -0.21014,-0.083 0.0205,0.15314 0.16532,0.16929 0.26212,0.24005 0.15987,0.11685 z m 27.04104,-0.0985 c 0,-0.0122 -0.0398,-8.1e-4 -0.0884,0.0252 -0.0486,0.026 -0.0884,0.0573 -0.0884,0.0694 0,0.0122 0.0398,8.1e-4 0.0884,-0.0252 0.0486,-0.026 0.0884,-0.0573 0.0884,-0.0694 z m 0.39775,-0.22098 c 0,-0.0121 -0.0398,-8e-4 -0.0884,0.0252 -0.0486,0.026 -0.0884,0.0573 -0.0884,0.0694 0,0.0122 0.0398,8.1e-4 0.0884,-0.0252 0.0486,-0.026 0.0884,-0.0572 0.0884,-0.0694 z m 0.30936,-0.17677 c 0,-0.0122 -0.0398,-8.1e-4 -0.0884,0.0252 -0.0486,0.026 -0.0884,0.0573 -0.0884,0.0694 0,0.0122 0.0398,8e-4 0.0884,-0.0252 0.0486,-0.026 0.0884,-0.0572 0.0884,-0.0694 z m -28.63783,-0.34078 c 0,-0.007 -0.12429,-0.13113 -0.27621,-0.27621 l -0.27621,-0.26379 0.26378,0.27622 c 0.24503,0.25658 0.28864,0.29643 0.28864,0.26378 z m 29.52171,-0.18955 c 0,-0.0122 -0.0398,-8.1e-4 -0.0884,0.0252 -0.0486,0.026 -0.0884,0.0573 -0.0884,0.0694 0,0.0122 0.0398,8e-4 0.0884,-0.0252 0.0486,-0.026 0.0884,-0.0572 0.0884,-0.0694 z m -29.47751,0.0568 c 0,-0.007 -0.11435,-0.12126 -0.25412,-0.25412 l -0.25411,-0.24155 0.24155,0.25411 c 0.22442,0.23608 0.26668,0.27436 0.26668,0.24156 z m 29.83107,-0.27781 c 0,-0.0122 -0.0398,-8.1e-4 -0.0884,0.0252 -0.0486,0.026 -0.0884,0.0572 -0.0884,0.0694 0,0.0122 0.0398,8.1e-4 0.0884,-0.0252 0.0486,-0.026 0.0884,-0.0573 0.0884,-0.0694 z m -31.33367,-1.26835 c 0,-0.007 -0.19391,-0.20046 -0.4309,-0.43089 l -0.43089,-0.41897 0.41897,0.43089 c 0.38914,0.40021 0.44282,0.451 0.44282,0.41897 z m -1.06066,-0.80567 c -0.18109,-0.1823 -0.33919,-0.33146 -0.35134,-0.33146 -0.0122,0 0.12606,0.14916 0.30714,0.33146 0.18109,0.1823 0.33919,0.33146 0.35134,0.33146 0.0122,0 -0.12606,-0.14916 -0.30714,-0.33146 z m 0.44194,-0.25831 c 0,-0.008 -0.0447,-0.0531 -0.0994,-0.0994 l -0.0994,-0.0842 0.0842,0.0994 c 0.0791,0.0934 0.11469,0.11955 0.11469,0.0842 z m 35.36098,-0.10629 c 0.055,-0.0701 0.0534,-0.0717 -0.0167,-0.0167 -0.0425,0.0334 -0.0773,0.0682 -0.0773,0.0773 0,0.0364 0.0363,0.013 0.094,-0.0606 z m -36.20067,-0.0277 c 0,-0.009 -0.0348,-0.044 -0.0773,-0.0773 -0.0701,-0.055 -0.0717,-0.0534 -0.0167,0.0167 0.0577,0.0736 0.094,0.097 0.094,0.0606 z m 36.50439,-0.22638 c 0.0571,-0.0608 0.0939,-0.11048 0.0817,-0.11048 -0.0121,0 -0.0688,0.0497 -0.12589,0.11048 -0.0571,0.0608 -0.0939,0.11049 -0.0817,0.11049 0.0121,0 0.0688,-0.0497 0.12589,-0.11049 z m -35.97406,0.051 c 0,-0.008 -0.0447,-0.0531 -0.0994,-0.0994 l -0.0994,-0.0842 0.0842,0.0994 c 0.0791,0.0934 0.11469,0.11955 0.11469,0.0842 z m 36.35249,-0.39355 0.1298,-0.14363 -0.14363,0.1298 c -0.13389,0.12099 -0.16395,0.15746 -0.1298,0.15746 0.008,0 0.0722,-0.0646 0.14363,-0.14363 z m -36.66185,0.0827 c 0,-0.009 -0.0348,-0.044 -0.0773,-0.0773 -0.0701,-0.055 -0.0717,-0.0534 -0.0167,0.0167 0.0577,0.0736 0.094,0.097 0.094,0.0607 z m 37.1452,-0.51365 c 0.0949,-0.0972 0.16268,-0.17677 0.15052,-0.17677 -0.0121,0 -0.0998,0.0795 -0.19471,0.17677 -0.0949,0.0972 -0.16268,0.17678 -0.15052,0.17678 0.0121,0 0.0998,-0.0795 0.19471,-0.17678 z m 0.53033,-0.48613 c 0.0949,-0.0972 0.16268,-0.17678 0.15052,-0.17678 -0.0122,0 -0.0998,0.0796 -0.19471,0.17678 -0.0949,0.0972 -0.16268,0.17677 -0.15052,0.17677 0.0121,0 0.0998,-0.0795 0.19471,-0.17677 z m -39.22233,-0.14401 c 0,-0.006 -0.44249,-0.44878 -0.98332,-0.98332 l -0.98332,-0.9719 0.9719,0.98333 c 0.90307,0.91369 0.99474,1.00325 0.99474,0.97189 z m 39.95154,-0.5502 c 0,-0.0332 -0.0397,0.002 -0.22282,0.19702 l -0.19703,0.20993 0.20992,-0.19703 c 0.11546,-0.10837 0.20993,-0.20283 0.20993,-0.20992 z m 0.53033,-0.47694 c 0.13202,-0.13368 0.2301,-0.24307 0.21795,-0.24307 -0.0121,0 -0.13012,0.10939 -0.26215,0.24307 -0.13202,0.13369 -0.2301,0.24307 -0.21795,0.24307 0.0121,0 0.13012,-0.10938 0.26215,-0.24307 z m -41.80769,0.0548 c 0,-0.006 -0.36295,-0.36927 -0.80655,-0.80654 l -0.80654,-0.79503 0.79504,0.80654 c 0.73865,0.74935 0.81805,0.82651 0.81805,0.79503 z m 42.51479,-0.71769 c 0.13203,-0.13369 0.23011,-0.24307 0.21796,-0.24307 -0.0122,0 -0.13012,0.10938 -0.26215,0.24307 -0.13203,0.13369 -0.23011,0.24307 -0.21795,0.24307 0.0121,0 0.13012,-0.10938 0.26214,-0.24307 z m 0.7955,-0.7513 c 0.15659,-0.158 0.27476,-0.28726 0.26261,-0.28726 -0.0121,0 -0.15022,0.12926 -0.30681,0.28726 -0.15658,0.15799 -0.27476,0.28726 -0.26261,0.28726 0.0122,0 0.15022,-0.12927 0.30681,-0.28726 z m 0.88388,-0.83969 c 0.15659,-0.15799 0.27477,-0.28726 0.26261,-0.28726 -0.0121,0 -0.15021,0.12927 -0.3068,0.28726 -0.15659,0.15799 -0.27477,0.28726 -0.26261,0.28726 0.0122,0 0.15021,-0.12927 0.3068,-0.28726 z m 0.90598,-0.86179 c 0.19332,-0.19445 0.34154,-0.35355 0.32939,-0.35355 -0.0122,0 -0.18027,0.1591 -0.37358,0.35355 -0.19332,0.19446 -0.34154,0.35356 -0.32938,0.35356 0.0121,0 0.18026,-0.1591 0.37357,-0.35356 z"
     id="path3797"
     inkscape:connector-curvature="0" />
  <path
     style="fill:#44aa00;stroke-width:0.04419417"
     d="m 190.60197,446.83368 c -2.33496,-0.10971 -5.03838,-0.6661 -7.41241,-1.52555 -0.5254,-0.1902 -0.78143,-0.30658 -0.87875,-0.39943 l -0.13733,-0.13103 -0.81283,-0.0267 -0.81283,-0.0267 -0.64083,-0.61028 c -0.49417,-0.4706 -0.74763,-0.67458 -1.10752,-0.89125 -1.46807,-0.88388 -2.87707,-1.94632 -4.1295,-3.11383 -0.3403,-0.31721 -2.72675,-2.68671 -5.30323,-5.26553 l -4.6845,-4.68878 h 0.18775 c 0.10326,0 0.18774,-0.0151 0.18774,-0.0336 0,-0.0185 -0.36294,-0.39137 -0.80654,-0.82864 l -0.80654,-0.79503 0.79503,0.80654 0.79504,0.80654 h -0.20579 -0.20579 l -7.33457,-7.36938 c -4.03402,-4.05315 -7.41943,-7.46425 -7.52315,-7.5802 -0.10371,-0.11595 -0.178,-0.2214 -0.16507,-0.23432 0.0532,-0.0532 0.70403,0.56111 2.95043,2.78472 l 2.36439,2.34039 -2.56312,-2.572 -2.56312,-2.572 h 0.29265 0.29265 l 7.59027,7.62349 c 4.70969,4.7303 7.62176,7.6235 7.67321,7.6235 0.0491,0 0.0834,-0.0316 0.084,-0.0773 6.2e-4,-0.0448 -3.18367,-3.25222 -7.56826,-7.62322 l -7.56933,-7.54588 32.78118,-2.8e-4 32.78118,-2.7e-4 -5.3e-4,9.20396 -5.3e-4,9.20397 -2.13201,2.12374 c -4.93262,4.91354 -5.42329,5.37837 -6.63978,6.29002 -3.84888,2.88442 -8.53863,4.68238 -13.14747,5.04047 -0.62075,0.0482 -3.04754,0.0911 -3.62421,0.064 z m -13.80393,-5.18121 c -0.0403,-0.0445 -0.0631,-0.091 -0.0508,-0.10339 0.0124,-0.0124 -0.0221,-0.0605 -0.0765,-0.1069 -0.0801,-0.0683 -0.0875,-0.0697 -0.0391,-0.007 0.0329,0.0425 0.044,0.0773 0.0247,0.0773 -0.0194,0 0.0115,0.0497 0.0686,0.11049 0.11844,0.12607 0.18463,0.15286 0.073,0.0295 z m 33.60856,-4.6368 c 0.055,-0.0701 0.0534,-0.0717 -0.0167,-0.0167 -0.0425,0.0334 -0.0773,0.0682 -0.0773,0.0773 0,0.0364 0.0363,0.013 0.094,-0.0607 z m 0.54678,-0.49718 c 0.044,-0.0486 0.07,-0.0884 0.0579,-0.0884 -0.0122,0 -0.0581,0.0398 -0.10209,0.0884 -0.044,0.0486 -0.0701,0.0884 -0.0579,0.0884 0.0122,0 0.0581,-0.0398 0.10209,-0.0884 z m 1.25954,-1.17115 c 0.0571,-0.0608 0.0939,-0.11048 0.0817,-0.11048 -0.0122,0 -0.0688,0.0497 -0.12589,0.11048 -0.0571,0.0608 -0.0939,0.11049 -0.0817,0.11049 0.0121,0 0.0688,-0.0497 0.12589,-0.11049 z m 0.7071,-0.66291 c 0.0571,-0.0608 0.0939,-0.11049 0.0817,-0.11049 -0.0122,0 -0.0688,0.0497 -0.12589,0.11049 -0.0571,0.0608 -0.0939,0.11049 -0.0817,0.11049 0.0122,0 0.0688,-0.0497 0.12589,-0.11049 z m 0.77618,-0.74025 0.1298,-0.14363 -0.14363,0.1298 c -0.13388,0.12099 -0.16394,0.15746 -0.1298,0.15746 0.008,0 0.0722,-0.0646 0.14363,-0.14363 z m 0.88389,-0.83969 0.1298,-0.14363 -0.14363,0.1298 c -0.13389,0.12099 -0.16395,0.15746 -0.12981,0.15746 0.008,0 0.0722,-0.0646 0.14364,-0.14363 z m 0.92529,-0.87284 c 0.0949,-0.0972 0.16268,-0.17677 0.15052,-0.17677 -0.0121,0 -0.0998,0.0795 -0.19471,0.17677 -0.0949,0.0972 -0.16268,0.17678 -0.15052,0.17678 0.0122,0 0.0998,-0.0795 0.19471,-0.17678 z m -52.348,-3.98861 c 0,-0.006 -1.80478,-1.81091 -4.01062,-4.01062 l -4.01062,-3.99948 3.99948,4.01062 c 2.19972,2.20584 4.0045,4.01062 4.01062,4.01062 0.006,0 0.0111,-0.005 0.0111,-0.0111 z"
     id="path3799"
     inkscape:connector-curvature="0" />
  <path
     style="fill:#44aa00;stroke-width:0.04419417"
     d=""
     id="path3801"
     inkscape:connector-curvature="0" />
  <path
     style="fill:#44aa00;stroke-width:0.00390625"
     d="m 165.54719,430.07549 c -0.092,-0.0845 -0.37727,-0.35949 -0.6109,-0.58891 -0.20796,-0.20421 -0.89186,-0.87948 -0.95308,-0.94105 l -0.0625,-0.0628 h 0.12438 0.12438 l 0.20362,0.20605 c 0.43271,0.4379 0.50432,0.51064 0.74304,0.75488 0.35167,0.3598 0.52551,0.54083 0.58138,0.60544 0.0237,0.0274 0.0255,0.0341 0.0156,0.0586 l -0.006,0.0157 h -0.0538 -0.0538 z"
     id="path3803"
     inkscape:connector-curvature="0" />
  <path
     style="fill:#44aa00;stroke-width:0.00390625"
     d="m 166.36793,431.86358 -1.74023,-1.74024 h 0.21582 c 0.1187,0 0.21582,-10e-4 0.21582,-0.002 0,-10e-4 -0.006,-0.01 -0.0124,-0.0186 -0.0165,-0.0216 -0.8292,-0.83582 -1.17315,-1.17542 -0.15039,-0.14849 -0.22232,-0.21823 -0.15984,-0.15498 0.0625,0.0632 0.29702,0.30132 0.52119,0.52906 0.22418,0.22773 0.49562,0.50283 0.6032,0.61132 l 0.19561,0.19727 -0.18945,0.001 c -0.1042,6.3e-4 -0.19655,1.4e-4 -0.20523,-0.001 -0.0174,-0.002 -0.015,-1.1e-4 -1.16213,-1.15239 l -0.47053,-0.47266 0.45446,-9.9e-4 0.45447,-10e-4 0.3346,0.33125 c 0.75019,0.74268 1.30163,1.27897 1.34142,1.30456 0.0103,0.007 -0.007,-0.01 -0.0967,-0.0945 -0.0866,-0.0813 -0.34875,-0.3339 -0.47252,-0.45529 -0.22123,-0.21698 -0.67807,-0.66783 -0.88054,-0.86899 l -0.21641,-0.21501 0.12071,-10e-4 0.12071,-10e-4 0.14808,0.14964 c 0.72915,0.73681 1.29184,1.3143 1.37683,1.41305 0.0251,0.0292 0.0298,0.0444 0.0197,0.0633 -0.002,0.004 -0.003,0.009 -0.002,0.01 0.003,0.003 0.009,-0.0108 0.0123,-0.0264 0.002,-0.0127 7.5e-4,-0.0162 -0.0195,-0.041 -0.0597,-0.073 -0.51419,-0.54149 -1.11131,-1.14542 -0.15361,-0.15537 -0.30977,-0.31402 -0.34703,-0.35257 l -0.0677,-0.0701 h 2.86753 2.86753 v 2.56054 2.56055 h -0.90137 -0.90137 z m -0.68669,-1.73924 c -0.0157,-7.4e-4 -0.0403,-7.3e-4 -0.0547,2e-5 -0.0144,7.5e-4 -0.002,10e-4 0.0285,10e-4 0.0301,-10e-6 0.0419,-6.2e-4 0.0262,-10e-4 z"
     id="path3805"
     inkscape:connector-curvature="0" />
  <path
     style="fill:#44aa00;stroke-width:0.00390625"
     d="m 166.36797,431.86361 -1.7402,-1.7402 0.21628,-10e-4 0.21628,-10e-4 -0.0169,-0.0215 c -0.0218,-0.0277 -0.63252,-0.64046 -1.02707,-1.03043 -0.16865,-0.16669 -0.27221,-0.26803 -0.23012,-0.22519 0.20147,0.20508 1.1642,1.18067 1.20238,1.21845 0.0239,0.0236 0.0434,0.0443 0.0434,0.046 0,0.002 -0.0917,0.003 -0.20366,0.002 l -0.20365,-0.001 -0.80792,-0.81055 c -0.44435,-0.4458 -0.80798,-0.81186 -0.80806,-0.81347 -9e-5,-0.002 0.20394,-0.003 0.45339,-0.003 h 0.45354 l 0.32482,0.32129 c 0.77407,0.76566 1.30722,1.28434 1.34747,1.31093 0.009,0.006 0.009,0.006 7.1e-4,-0.002 -0.004,-0.004 -0.0395,-0.0374 -0.0781,-0.0736 -0.0859,-0.0804 -0.34122,-0.32607 -0.46875,-0.45099 -0.34956,-0.34241 -1.11523,-1.09978 -1.11523,-1.10314 0,-10e-4 0.0542,-0.002 0.12055,-0.002 h 0.12054 l 0.27692,0.28028 c 0.70691,0.71552 1.18663,1.2087 1.25216,1.2873 0.0199,0.0239 0.0233,0.0374 0.015,0.0593 -0.002,0.006 -0.002,0.009 -5.4e-4,0.008 0.002,-10e-4 0.006,-0.01 0.008,-0.0197 0.005,-0.0176 0.005,-0.0177 -0.011,-0.0382 -0.052,-0.0672 -0.44386,-0.47121 -1.19236,-1.22949 -0.15589,-0.15793 -0.2963,-0.30077 -0.31202,-0.31742 l -0.0286,-0.0303 h 2.86769 2.86768 v 2.56054 2.56055 h -0.90137 -0.90137 z m -0.70602,-1.73892 c -0.003,-10e-4 -0.008,-10e-4 -0.0117,-1.5e-4 -0.004,9.9e-4 -0.002,0.002 0.005,0.002 0.006,8e-5 0.01,-7.3e-4 0.007,-0.002 z"
     id="path3807"
     inkscape:connector-curvature="0" />
  <path
     style="fill:#44aa00;stroke-width:0.00390625"
     d=""
     id="path3809"
     inkscape:connector-curvature="0" />
  <path
     style="fill:#44aa00;stroke-width:0.00390625"
     d=""
     id="path3811"
     inkscape:connector-curvature="0" />
  <path
     style="fill:#44aa00;stroke-width:0.00390625"
     d="m 163.80153,429.30477 c -0.69283,-0.693 -0.82042,-0.82229 -0.81055,-0.82129 0.01,0.001 0.14457,0.13461 0.82173,0.81467 l 0.81,0.81347 h 0.20692 0.20691 l -0.0306,-0.0327 c -0.0168,-0.018 -0.2222,-0.22652 -0.45638,-0.46337 -0.23418,-0.23685 -0.42637,-0.43262 -0.42709,-0.43503 -0.002,-0.006 0.90535,0.90249 0.92074,0.92235 l 0.0129,0.0166 h -0.21485 c -0.13985,0 -0.2153,0.001 -0.21615,0.004 -7.1e-4,0.002 -0.37132,-0.36621 -0.82356,-0.81858 z"
     id="path3813"
     inkscape:connector-curvature="0" />
  <path
     style="fill:#44aa00;stroke-width:0.00390625"
     d="m 165.03006,430.09212 c -0.004,-0.004 -0.005,-0.008 -0.003,-0.008 0.005,0 0.0147,0.0112 0.012,0.0138 -0.001,0.001 -0.005,-0.002 -0.009,-0.006 z"
     id="path3815"
     inkscape:connector-curvature="0" />
  <path
     style="fill:#44aa00;stroke-width:0.03125"
     d="m 284.50594,364.35569 c 1.4806,-1.47336 3.817,-3.79726 5.192,-5.16423 3.63533,-3.61409 8.01652,-7.9778 21.36839,-21.28314 l 11.89965,-11.85817 0.24098,-0.009 0.24098,-0.009 -20.49999,20.50098 -20.49999,20.50097 h -0.31701 -0.31701 z"
     id="path3817"
     inkscape:connector-curvature="0" />
  <path
     style="fill:#28a745;stroke-width:0.04419417;fill-opacity:1"
     d="m 257.59454,391.02699 c 0.41313,-0.40965 3.69338,-3.65627 7.28944,-7.2147 3.59607,-3.55842 8.87375,-8.78675 11.72818,-11.61849 l 5.18988,-5.14862 0.28853,0.0151 0.28853,0.0151 -12.34814,12.3482 -12.34813,12.34819 h -0.41971 -0.41972 z"
     id="path3819"
     inkscape:connector-curvature="0" />
  <path
     style="fill:#28a745;fill-opacity:1"
     d="m 184.9928,446.14165 c -4.92617,-1.01703 -6.28878,-2.31896 -92.278851,-88.16867 C 25.237145,290.60631 4.8744387,269.71434 2.9639495,265.89024 -0.44378911,259.06918 -0.43967531,250.6005 2.9747051,243.74873 5.8393777,238.00008 44.681873,198.7819 50.404949,195.85974 c 1.876682,-0.95822 6.036296,-1.98017 9.243586,-2.271 11.453852,-1.0386 10.632861,-1.68111 58.344265,45.66098 23.65,23.46694 49.87152,49.32095 58.27004,57.45335 l 15.27004,14.78619 5.20256,-4.32634 c 2.8614,-2.37949 58.31488,-57.23021 123.22996,-121.8905 L 437.9928,67.708262 443.784,66.441484 c 6.52502,-1.427293 12.39098,-0.786189 17.77795,1.942993 1.96303,0.994523 12.93696,11.178097 24.38652,22.630164 23.71818,23.723389 26.09545,27.208899 25.34495,37.160379 -0.23484,3.11386 -1.24948,7.46156 -2.25476,9.66156 -2.49545,5.46115 -300.27987,303.60339 -306.04586,306.41362 -5.14026,2.50525 -11.69219,3.19374 -18,1.89145 z"
     id="path4626"
     inkscape:connector-curvature="0" />
</svg>
